STARTFONT 2.1
COMMENT Created by fdbbdf
FONT times12
SIZE 12 78 78
FONTBOUNDINGBOX 14 15 -1 -5
STARTPROPERTIES 4
Ownership "  Copyright (c) 1984 Adobe Systems, Inc.  /adobe/fonttools/bitmaps/stdfontvec.ps TM14.bits  TOTAL BITMAP BYTES 1491  GUIDELINES -3 0 7 10 DONE  WIDTHERR -118 -99  "
FONT_ASCENT 10
FONT_DESCENT 5
DEFAULT_CHAR 32
ENDPROPERTIES
CHARS 95
STARTCHAR sp
ENCODING -1 32
SWIDTH 0 0
DWIDTH 3 0
BBX 0 0 0 0
BITMAP
ENDCHAR
STARTCHAR !
ENCODING -1 33
SWIDTH 0 0
DWIDTH 5 0
BBX 1 10 2 -1
BITMAP
8000
8000
8000
8000
8000
8000
8000
0000
8000
8000
ENDCHAR
STARTCHAR "
ENCODING -1 34
SWIDTH 0 0
DWIDTH 6 0
BBX 3 3 1 6
BITMAP
a000
a000
a000
ENDCHAR
STARTCHAR #
ENCODING -1 35
SWIDTH 0 0
DWIDTH 7 0
BBX 7 10 0 -1
BITMAP
1400
1400
7e00
2800
2800
2800
fc00
5000
5000
5000
ENDCHAR
STARTCHAR $
ENCODING -1 36
SWIDTH 0 0
DWIDTH 7 0
BBX 5 12 1 -2
BITMAP
2000
7800
a800
a000
a000
7000
2800
2800
2800
a800
f000
2000
ENDCHAR
STARTCHAR %
ENCODING -1 37
SWIDTH 0 0
DWIDTH 12 0
BBX 9 10 1 -1
BITMAP
6180
df00
9200
9400
6400
0b00
1680
3480
6480
4300
ENDCHAR
STARTCHAR &
ENCODING -1 38
SWIDTH 0 0
DWIDTH 11 0
BBX 10 10 1 -1
BITMAP
1800
2400
2400
3800
1380
7900
ca00
8400
ce40
7180
ENDCHAR
STARTCHAR '
ENCODING -1 39
SWIDTH 0 0
DWIDTH 4 0
BBX 2 3 1 6
BITMAP
c000
4000
8000
ENDCHAR
STARTCHAR (
ENCODING -1 40
SWIDTH 0 0
DWIDTH 5 0
BBX 3 13 1 -4
BITMAP
2000
2000
4000
4000
8000
8000
8000
8000
8000
4000
4000
2000
2000
ENDCHAR
STARTCHAR )
ENCODING -1 41
SWIDTH 0 0
DWIDTH 5 0
BBX 3 13 1 -4
BITMAP
8000
8000
4000
4000
2000
2000
2000
2000
2000
4000
4000
8000
8000
ENDCHAR
STARTCHAR *
ENCODING -1 42
SWIDTH 0 0
DWIDTH 7 0
BBX 5 6 1 3
BITMAP
2000
a800
7000
7000
a800
2000
ENDCHAR
STARTCHAR +
ENCODING -1 43
SWIDTH 0 0
DWIDTH 9 0
BBX 7 7 1 0
BITMAP
1000
1000
1000
fe00
1000
1000
1000
ENDCHAR
STARTCHAR ,
ENCODING -1 44
SWIDTH 0 0
DWIDTH 3 0
BBX 2 4 0 -3
BITMAP
4000
4000
4000
8000
ENDCHAR
STARTCHAR -
ENCODING -1 45
SWIDTH 0 0
DWIDTH 7 0
BBX 4 1 1 3
BITMAP
f000
ENDCHAR
STARTCHAR .
ENCODING -1 46
SWIDTH 0 0
DWIDTH 3 0
BBX 1 2 1 -1
BITMAP
8000
8000
ENDCHAR
STARTCHAR /
ENCODING -1 47
SWIDTH 0 0
DWIDTH 4 0
BBX 4 10 0 -1
BITMAP
1000
1000
2000
2000
2000
4000
4000
4000
8000
8000
ENDCHAR
STARTCHAR 0
ENCODING -1 48
SWIDTH 0 0
DWIDTH 7 0
BBX 6 10 0 -1
BITMAP
7800
cc00
8400
8400
8400
8400
8400
8400
cc00
7800
ENDCHAR
STARTCHAR 1
ENCODING -1 49
SWIDTH 0 0
DWIDTH 6 0
BBX 5 10 0 -1
BITMAP
2000
6000
a000
2000
2000
2000
2000
2000
2000
f800
ENDCHAR
STARTCHAR 2
ENCODING -1 50
SWIDTH 0 0
DWIDTH 7 0
BBX 6 10 0 -1
BITMAP
7800
cc00
8400
0400
0800
1000
2000
4000
c400
fc00
ENDCHAR
STARTCHAR 3
ENCODING -1 51
SWIDTH 0 0
DWIDTH 7 0
BBX 6 10 0 -1
BITMAP
7800
cc00
8400
0800
3800
0400
0400
8400
cc00
7800
ENDCHAR
STARTCHAR 4
ENCODING -1 52
SWIDTH 0 0
DWIDTH 7 0
BBX 6 10 0 -1
BITMAP
0800
1800
1800
2800
4800
4800
8800
fc00
0800
0800
ENDCHAR
STARTCHAR 5
ENCODING -1 53
SWIDTH 0 0
DWIDTH 6 0
BBX 5 10 0 -1
BITMAP
7800
4000
8000
e000
3000
1800
0800
0800
9000
e000
ENDCHAR
STARTCHAR 6
ENCODING -1 54
SWIDTH 0 0
DWIDTH 7 0
BBX 6 10 0 -1
BITMAP
0c00
1800
2000
4000
7800
cc00
8400
8400
cc00
7800
ENDCHAR
STARTCHAR 7
ENCODING -1 55
SWIDTH 0 0
DWIDTH 7 0
BBX 6 10 0 -1
BITMAP
fc00
8400
0800
0800
1000
1000
2000
2000
4000
4000
ENDCHAR
STARTCHAR 8
ENCODING -1 56
SWIDTH 0 0
DWIDTH 7 0
BBX 6 10 0 -1
BITMAP
7800
cc00
8400
cc00
7800
cc00
8400
8400
cc00
7800
ENDCHAR
STARTCHAR 9
ENCODING -1 57
SWIDTH 0 0
DWIDTH 7 0
BBX 6 10 0 -1
BITMAP
7800
cc00
8400
8400
cc00
7800
0800
1000
6000
c000
ENDCHAR
STARTCHAR :
ENCODING -1 58
SWIDTH 0 0
DWIDTH 4 0
BBX 1 7 1 -1
BITMAP
8000
8000
0000
0000
0000
8000
8000
ENDCHAR
STARTCHAR ;
ENCODING -1 59
SWIDTH 0 0
DWIDTH 4 0
BBX 2 9 0 -3
BITMAP
4000
4000
0000
0000
0000
4000
4000
4000
8000
ENDCHAR
STARTCHAR <
ENCODING -1 60
SWIDTH 0 0
DWIDTH 8 0
BBX 7 7 0 0
BITMAP
0600
1800
6000
8000
6000
1800
0600
ENDCHAR
STARTCHAR =
ENCODING -1 61
SWIDTH 0 0
DWIDTH 9 0
BBX 7 3 1 2
BITMAP
fc00
0000
fc00
ENDCHAR
STARTCHAR >
ENCODING -1 62
SWIDTH 0 0
DWIDTH 8 0
BBX 7 7 0 0
BITMAP
c000
3000
0c00
0200
0c00
3000
c000
ENDCHAR
STARTCHAR ?
ENCODING -1 63
SWIDTH 0 0
DWIDTH 6 0
BBX 5 10 0 -1
BITMAP
7000
9800
8800
1800
3000
2000
2000
0000
2000
2000
ENDCHAR
STARTCHAR @
ENCODING -1 64
SWIDTH 0 0
DWIDTH 13 0
BBX 12 12 0 -3
BITMAP
0f80
3060
6020
4690
8910
9110
9110
9320
cdc0
4000
30c0
0f00
ENDCHAR
STARTCHAR A
ENCODING -1 65
SWIDTH 0 0
DWIDTH 11 0
BBX 9 10 1 -1
BITMAP
0800
0800
1400
1400
2200
2200
3e00
4100
4100
e380
ENDCHAR
STARTCHAR B
ENCODING -1 66
SWIDTH 0 0
DWIDTH 9 0
BBX 7 10 1 -1
BITMAP
fc00
4600
4200
4600
7c00
4600
4200
4200
4600
fc00
ENDCHAR
STARTCHAR C
ENCODING -1 67
SWIDTH 0 0
DWIDTH 10 0
BBX 8 10 1 -1
BITMAP
3d00
6300
4100
8100
8000
8000
8000
c100
6200
3c00
ENDCHAR
STARTCHAR D
ENCODING -1 68
SWIDTH 0 0
DWIDTH 11 0
BBX 9 10 1 -1
BITMAP
fe00
2300
2100
2080
2080
2080
2080
2100
2300
fe00
ENDCHAR
STARTCHAR E
ENCODING -1 69
SWIDTH 0 0
DWIDTH 9 0
BBX 7 10 1 -1
BITMAP
fe00
4200
4000
4800
7800
4800
4000
4200
4200
fe00
ENDCHAR
STARTCHAR F
ENCODING -1 70
SWIDTH 0 0
DWIDTH 9 0
BBX 7 10 1 -1
BITMAP
fe00
4200
4000
4800
7800
4800
4000
4000
4000
e000
ENDCHAR
STARTCHAR G
ENCODING -1 71
SWIDTH 0 0
DWIDTH 11 0
BBX 9 10 1 -1
BITMAP
3d00
6300
4100
8000
8000
8780
8100
c100
6300
3e00
ENDCHAR
STARTCHAR H
ENCODING -1 72
SWIDTH 0 0
DWIDTH 10 0
BBX 8 10 1 -1
BITMAP
e700
4200
4200
4200
7e00
4200
4200
4200
4200
e700
ENDCHAR
STARTCHAR I
ENCODING -1 73
SWIDTH 0 0
DWIDTH 5 0
BBX 3 10 1 -1
BITMAP
e000
4000
4000
4000
4000
4000
4000
4000
4000
e000
ENDCHAR
STARTCHAR J
ENCODING -1 74
SWIDTH 0 0
DWIDTH 7 0
BBX 5 10 1 -1
BITMAP
3800
1000
1000
1000
1000
1000
1000
1000
9000
e000
ENDCHAR
STARTCHAR K
ENCODING -1 75
SWIDTH 0 0
DWIDTH 10 0
BBX 8 10 1 -1
BITMAP
ee00
4400
4800
5000
7000
5000
4800
4400
4200
e700
ENDCHAR
STARTCHAR L
ENCODING -1 76
SWIDTH 0 0
DWIDTH 9 0
BBX 7 10 1 -1
BITMAP
e000
4000
4000
4000
4000
4000
4000
4200
4200
fe00
ENDCHAR
STARTCHAR M
ENCODING -1 77
SWIDTH 0 0
DWIDTH 13 0
BBX 11 10 1 -1
BITMAP
e0e0
60c0
5140
5140
5b40
4a40
4a40
4e40
4440
e4e0
ENDCHAR
STARTCHAR N
ENCODING -1 78
SWIDTH 0 0
DWIDTH 11 0
BBX 9 10 1 -1
BITMAP
e380
6100
5100
5900
4900
4d00
4500
4500
4300
e300
ENDCHAR
STARTCHAR O
ENCODING -1 79
SWIDTH 0 0
DWIDTH 10 0
BBX 8 10 1 -1
BITMAP
3c00
6600
4200
8100
8100
8100
8100
4200
6600
3c00
ENDCHAR
STARTCHAR P
ENCODING -1 80
SWIDTH 0 0
DWIDTH 9 0
BBX 7 10 1 -1
BITMAP
fc00
4600
4200
4200
4600
7c00
4000
4000
4000
e000
ENDCHAR
STARTCHAR Q
ENCODING -1 81
SWIDTH 0 0
DWIDTH 10 0
BBX 8 13 1 -4
BITMAP
3c00
6600
4200
8100
8100
8100
8100
4200
6600
3c00
0800
0600
0300
ENDCHAR
STARTCHAR R
ENCODING -1 82
SWIDTH 0 0
DWIDTH 9 0
BBX 8 10 0 -1
BITMAP
fc00
4600
4200
4600
7c00
5800
4800
4400
4600
e300
ENDCHAR
STARTCHAR S
ENCODING -1 83
SWIDTH 0 0
DWIDTH 8 0
BBX 6 10 1 -1
BITMAP
7400
cc00
8400
c000
7000
1800
0400
8400
cc00
b800
ENDCHAR
STARTCHAR T
ENCODING -1 84
SWIDTH 0 0
DWIDTH 9 0
BBX 7 10 1 -1
BITMAP
fe00
9200
9200
1000
1000
1000
1000
1000
1000
3800
ENDCHAR
STARTCHAR U
ENCODING -1 85
SWIDTH 0 0
DWIDTH 10 0
BBX 8 10 1 -1
BITMAP
e700
4200
4200
4200
4200
4200
4200
4200
6600
3c00
ENDCHAR
STARTCHAR V
ENCODING -1 86
SWIDTH 0 0
DWIDTH 9 0
BBX 9 10 0 -1
BITMAP
e380
4100
6300
2200
2200
3600
1400
1c00
0800
0800
ENDCHAR
STARTCHAR W
ENCODING -1 87
SWIDTH 0 0
DWIDTH 13 0
BBX 13 10 0 -1
BITMAP
ee38
4410
6630
2220
2220
3360
1540
1dc0
0880
0880
ENDCHAR
STARTCHAR X
ENCODING -1 88
SWIDTH 0 0
DWIDTH 10 0
BBX 8 10 1 -1
BITMAP
f700
6200
2400
3400
1800
1800
2c00
2400
4600
e700
ENDCHAR
STARTCHAR Y
ENCODING -1 89
SWIDTH 0 0
DWIDTH 9 0
BBX 9 10 0 -1
BITMAP
e380
4100
2200
2200
1c00
0800
0800
0800
0800
1c00
ENDCHAR
STARTCHAR Z
ENCODING -1 90
SWIDTH 0 0
DWIDTH 9 0
BBX 8 10 0 -1
BITMAP
7f00
4300
4200
0400
0800
1000
2000
4000
c100
ff00
ENDCHAR
STARTCHAR [
ENCODING -1 91
SWIDTH 0 0
DWIDTH 5 0
BBX 3 13 1 -4
BITMAP
e000
8000
8000
8000
8000
8000
8000
8000
8000
8000
8000
8000
e000
ENDCHAR
STARTCHAR \
ENCODING -1 92
SWIDTH 0 0
DWIDTH 4 0
BBX 4 10 0 -1
BITMAP
8000
8000
4000
4000
4000
2000
2000
2000
1000
1000
ENDCHAR
STARTCHAR ]
ENCODING -1 93
SWIDTH 0 0
DWIDTH 5 0
BBX 3 13 1 -4
BITMAP
e000
2000
2000
2000
2000
2000
2000
2000
2000
2000
2000
2000
e000
ENDCHAR
STARTCHAR ^
ENCODING -1 94
SWIDTH 0 0
DWIDTH 7 0
BBX 5 5 1 4
BITMAP
2000
5000
5000
8800
8800
ENDCHAR
STARTCHAR _
ENCODING -1 95
SWIDTH 0 0
DWIDTH 7 0
BBX 7 1 0 -5
BITMAP
fe00
ENDCHAR
STARTCHAR `
ENCODING -1 96
SWIDTH 0 0
DWIDTH 4 0
BBX 2 3 1 6
BITMAP
4000
8000
c000
ENDCHAR
STARTCHAR a
ENCODING -1 97
SWIDTH 0 0
DWIDTH 7 0
BBX 6 7 0 -1
BITMAP
7000
c800
1800
6800
8800
c800
7400
ENDCHAR
STARTCHAR b
ENCODING -1 98
SWIDTH 0 0
DWIDTH 7 0
BBX 6 10 0 -1
BITMAP
c000
4000
4000
5800
6c00
4400
4400
4400
4c00
7800
ENDCHAR
STARTCHAR c
ENCODING -1 99
SWIDTH 0 0
DWIDTH 6 0
BBX 5 7 0 -1
BITMAP
7000
c800
8000
8000
8000
c800
7000
ENDCHAR
STARTCHAR d
ENCODING -1 100
SWIDTH 0 0
DWIDTH 7 0
BBX 6 10 0 -1
BITMAP
1800
0800
0800
7800
c800
8800
8800
8800
d800
6400
ENDCHAR
STARTCHAR e
ENCODING -1 101
SWIDTH 0 0
DWIDTH 6 0
BBX 5 7 0 -1
BITMAP
7000
8800
f800
8000
8000
c800
7000
ENDCHAR
STARTCHAR f
ENCODING -1 102
SWIDTH 0 0
DWIDTH 5 0
BBX 5 10 0 -1
BITMAP
3800
6000
4000
f800
4000
4000
4000
4000
4000
f000
ENDCHAR
STARTCHAR g
ENCODING -1 103
SWIDTH 0 0
DWIDTH 7 0
BBX 6 10 0 -4
BITMAP
7c00
9000
8800
c800
7000
4000
7800
8400
cc00
7800
ENDCHAR
STARTCHAR h
ENCODING -1 104
SWIDTH 0 0
DWIDTH 8 0
BBX 7 10 0 -1
BITMAP
c000
4000
4000
5800
6c00
4400
4400
4400
4400
ee00
ENDCHAR
STARTCHAR i
ENCODING -1 105
SWIDTH 0 0
DWIDTH 4 0
BBX 3 10 0 -1
BITMAP
4000
4000
0000
c000
4000
4000
4000
4000
4000
e000
ENDCHAR
STARTCHAR j
ENCODING -1 106
SWIDTH 0 0
DWIDTH 4 0
BBX 3 13 -1 -4
BITMAP
2000
2000
0000
6000
2000
2000
2000
2000
2000
2000
2000
a000
c000
ENDCHAR
STARTCHAR k
ENCODING -1 107
SWIDTH 0 0
DWIDTH 8 0
BBX 7 10 0 -1
BITMAP
c000
4000
4000
4c00
4800
7000
5000
4800
4400
e600
ENDCHAR
STARTCHAR l
ENCODING -1 108
SWIDTH 0 0
DWIDTH 4 0
BBX 3 10 0 -1
BITMAP
c000
4000
4000
4000
4000
4000
4000
4000
4000
e000
ENDCHAR
STARTCHAR m
ENCODING -1 109
SWIDTH 0 0
DWIDTH 12 0
BBX 11 7 0 -1
BITMAP
db80
6cc0
4440
4440
4440
4440
eee0
ENDCHAR
STARTCHAR n
ENCODING -1 110
SWIDTH 0 0
DWIDTH 8 0
BBX 7 7 0 -1
BITMAP
d800
6c00
4400
4400
4400
4400
ee00
ENDCHAR
STARTCHAR o
ENCODING -1 111
SWIDTH 0 0
DWIDTH 6 0
BBX 5 7 0 -1
BITMAP
7000
d800
8800
8800
8800
d800
7000
ENDCHAR
STARTCHAR p
ENCODING -1 112
SWIDTH 0 0
DWIDTH 7 0
BBX 6 10 0 -4
BITMAP
d800
6c00
4400
4400
4400
6c00
5800
4000
4000
e000
ENDCHAR
STARTCHAR q
ENCODING -1 113
SWIDTH 0 0
DWIDTH 6 0
BBX 6 10 0 -4
BITMAP
7800
c800
8800
8800
8800
d800
6800
0800
0800
1c00
ENDCHAR
STARTCHAR r
ENCODING -1 114
SWIDTH 0 0
DWIDTH 6 0
BBX 5 7 0 -1
BITMAP
b800
6800
4000
4000
4000
4000
e000
ENDCHAR
STARTCHAR s
ENCODING -1 115
SWIDTH 0 0
DWIDTH 5 0
BBX 4 7 0 -1
BITMAP
7000
9000
c000
6000
3000
9000
e000
ENDCHAR
STARTCHAR t
ENCODING -1 116
SWIDTH 0 0
DWIDTH 5 0
BBX 4 8 0 -1
BITMAP
4000
f000
4000
4000
4000
4000
4000
3000
ENDCHAR
STARTCHAR u
ENCODING -1 117
SWIDTH 0 0
DWIDTH 8 0
BBX 7 7 0 -1
BITMAP
cc00
4400
4400
4400
4400
6c00
3600
ENDCHAR
STARTCHAR v
ENCODING -1 118
SWIDTH 0 0
DWIDTH 8 0
BBX 7 7 0 -1
BITMAP
ee00
4400
4400
2800
3800
1000
1000
ENDCHAR
STARTCHAR w
ENCODING -1 119
SWIDTH 0 0
DWIDTH 12 0
BBX 11 7 0 -1
BITMAP
eee0
4440
4440
2a80
3b80
1100
1100
ENDCHAR
STARTCHAR x
ENCODING -1 120
SWIDTH 0 0
DWIDTH 8 0
BBX 7 7 0 -1
BITMAP
ee00
4400
3800
1000
3800
4400
ee00
ENDCHAR
STARTCHAR y
ENCODING -1 121
SWIDTH 0 0
DWIDTH 8 0
BBX 7 10 0 -4
BITMAP
ee00
4400
4400
2800
3800
1000
1000
2000
a000
c000
ENDCHAR
STARTCHAR z
ENCODING -1 122
SWIDTH 0 0
DWIDTH 6 0
BBX 5 7 0 -1
BITMAP
f800
9800
1000
2000
4000
c800
f800
ENDCHAR
STARTCHAR {
ENCODING -1 123
SWIDTH 0 0
DWIDTH 7 0
BBX 5 13 1 -4
BITMAP
1800
2000
2000
2000
2000
4000
8000
4000
2000
2000
2000
2000
1800
ENDCHAR
STARTCHAR |
ENCODING -1 124
SWIDTH 0 0
DWIDTH 3 0
BBX 1 13 1 -4
BITMAP
8000
8000
8000
8000
8000
8000
8000
8000
8000
8000
8000
8000
8000
ENDCHAR
STARTCHAR }
ENCODING -1 125
SWIDTH 0 0
DWIDTH 7 0
BBX 5 13 1 -4
BITMAP
c000
2000
2000
2000
2000
1000
0800
1000
2000
2000
2000
2000
c000
ENDCHAR
STARTCHAR ~
ENCODING -1 126
SWIDTH 0 0
DWIDTH 8 0
BBX 7 2 0 2
BITMAP
6200
9c00
ENDCHAR
ENDFONT
